# xmcd CD database file
#
# Track frame offsets:
#	150
#	10123
#	23240
#	35007
#	46134
#	58437
#	67778
#	78654
#	92033
#	102922
#	112394
#	124358
#	137007
#	151108
#	159480
#	170973
#	183896
#	192764
#	206688
#	216805
#
# Disc length: 3042 seconds
#
# Revision: 0
# Processed by: cddbd v1.5.2PL0 Copyright (c) Steve Scherf et al.
# Submitted via: CDex 1.51
#
DISCID=1d0be014
DTITLE=Yvonne Devaney  - Yvonne Devaney Collection
DYEAR=1900
DGENRE=Country
TTITLE0=Ten Million and Two
TTITLE1=Sittin in the Amen Seat
TTITLE2=Thank Heaven For Sending Me You
TTITLE3=Let Him Walk This Troubled Earth Again
TTITLE4=I'd Like To Shake the Hand of the Girl Who Finally Won
TTITLE5=How Long Darling
TTITLE6=All's Right With the World
TTITLE7=There's Gonna Be Love Everywhere
TTITLE8=Teach Me to Live Without You
TTITLE9=I'm Just Fool Enough
TTITLE10=Just For a Moment
TTITLE11=God Made an Angel
TTITLE12=Wine From My Table
TTITLE13=Tell Me a Lie
TTITLE14=Forever and One Day
TTITLE15=Mary Magdalena
TTITLE16=Take Me Back Into Your World
TTITLE17=One Teardrop Too Long
TTITLE18=Anything to Stop the Hurt
TTITLE19=How Many Times Jesus
EXTD=
EXTT0=
EXTT1=
EXTT2=
EXTT3=
EXTT4=
EXTT5=
EXTT6=
EXTT7=
EXTT8=
EXTT9=
EXTT10=
EXTT11=
EXTT12=
EXTT13=
EXTT14=
EXTT15=
EXTT16=
EXTT17=
EXTT18=
EXTT19=
PLAYORDER=
